<mxfile host="app.diagrams.net" modified="2023-12-05T19:16:17.312Z" agent="Mozilla/5.0 (Windows NT 10.0; Win64; x64) AppleWebKit/537.36 (KHTML, like Gecko) Chrome/119.0.0.0 Safari/537.36" etag="AhIZ56utpAmoocNwgzou" version="22.1.5" type="device">
  <diagram name="Страница — 1" id="Dt1CVnb4ts_6Y-NyzDfS">
    <mxGraphModel dx="1259" dy="702" grid="1" gridSize="10" guides="1" tooltips="1" connect="1" arrows="1" fold="1" page="1" pageScale="1" pageWidth="827" pageHeight="1169" math="0" shadow="0">
      <root>
        <mxCell id="0" />
        <mxCell id="1" parent="0" />
        <mxCell id="OZxsAudcZLBtBJnWpDgQ-2" value="Hamster" style="rounded=1;whiteSpace=wrap;html=1;" vertex="1" parent="1">
          <mxGeometry x="430" y="40" width="120" height="60" as="geometry" />
        </mxCell>
        <mxCell id="OZxsAudcZLBtBJnWpDgQ-14" style="edgeStyle=orthogonalEdgeStyle;rounded=0;orthogonalLoop=1;jettySize=auto;html=1;entryX=1;entryY=0.5;entryDx=0;entryDy=0;" edge="1" parent="1" source="OZxsAudcZLBtBJnWpDgQ-3" target="OZxsAudcZLBtBJnWpDgQ-9">
          <mxGeometry relative="1" as="geometry">
            <Array as="points">
              <mxPoint x="340" y="200" />
            </Array>
          </mxGeometry>
        </mxCell>
        <mxCell id="OZxsAudcZLBtBJnWpDgQ-3" value="Camel" style="rounded=1;whiteSpace=wrap;html=1;" vertex="1" parent="1">
          <mxGeometry x="280" y="40" width="120" height="60" as="geometry" />
        </mxCell>
        <mxCell id="OZxsAudcZLBtBJnWpDgQ-18" value="" style="edgeStyle=orthogonalEdgeStyle;rounded=0;orthogonalLoop=1;jettySize=auto;html=1;" edge="1" parent="1" source="OZxsAudcZLBtBJnWpDgQ-4" target="OZxsAudcZLBtBJnWpDgQ-10">
          <mxGeometry relative="1" as="geometry" />
        </mxCell>
        <mxCell id="OZxsAudcZLBtBJnWpDgQ-4" value="Cat" style="rounded=1;whiteSpace=wrap;html=1;" vertex="1" parent="1">
          <mxGeometry x="570" y="40" width="120" height="60" as="geometry" />
        </mxCell>
        <mxCell id="OZxsAudcZLBtBJnWpDgQ-5" value="Dog" style="rounded=1;whiteSpace=wrap;html=1;" vertex="1" parent="1">
          <mxGeometry x="707" y="40" width="120" height="60" as="geometry" />
        </mxCell>
        <mxCell id="OZxsAudcZLBtBJnWpDgQ-12" style="edgeStyle=orthogonalEdgeStyle;rounded=0;orthogonalLoop=1;jettySize=auto;html=1;entryX=0;entryY=0.5;entryDx=0;entryDy=0;" edge="1" parent="1" source="OZxsAudcZLBtBJnWpDgQ-6" target="OZxsAudcZLBtBJnWpDgQ-9">
          <mxGeometry relative="1" as="geometry">
            <mxPoint x="120" y="200" as="targetPoint" />
            <Array as="points">
              <mxPoint x="60" y="200" />
            </Array>
          </mxGeometry>
        </mxCell>
        <mxCell id="OZxsAudcZLBtBJnWpDgQ-6" value="Donkey" style="rounded=1;whiteSpace=wrap;html=1;" vertex="1" parent="1">
          <mxGeometry y="40" width="120" height="60" as="geometry" />
        </mxCell>
        <mxCell id="OZxsAudcZLBtBJnWpDgQ-13" value="" style="edgeStyle=orthogonalEdgeStyle;rounded=0;orthogonalLoop=1;jettySize=auto;html=1;" edge="1" parent="1" source="OZxsAudcZLBtBJnWpDgQ-7" target="OZxsAudcZLBtBJnWpDgQ-9">
          <mxGeometry relative="1" as="geometry" />
        </mxCell>
        <mxCell id="OZxsAudcZLBtBJnWpDgQ-7" value="Horse" style="rounded=1;whiteSpace=wrap;html=1;" vertex="1" parent="1">
          <mxGeometry x="140" y="40" width="120" height="60" as="geometry" />
        </mxCell>
        <mxCell id="OZxsAudcZLBtBJnWpDgQ-22" style="edgeStyle=orthogonalEdgeStyle;rounded=0;orthogonalLoop=1;jettySize=auto;html=1;entryX=0;entryY=0.5;entryDx=0;entryDy=0;" edge="1" parent="1" source="OZxsAudcZLBtBJnWpDgQ-9" target="OZxsAudcZLBtBJnWpDgQ-11">
          <mxGeometry relative="1" as="geometry">
            <Array as="points">
              <mxPoint x="200" y="350" />
            </Array>
          </mxGeometry>
        </mxCell>
        <mxCell id="OZxsAudcZLBtBJnWpDgQ-9" value="Pack_animals" style="rounded=1;whiteSpace=wrap;html=1;" vertex="1" parent="1">
          <mxGeometry x="140" y="170" width="120" height="60" as="geometry" />
        </mxCell>
        <mxCell id="OZxsAudcZLBtBJnWpDgQ-21" style="edgeStyle=orthogonalEdgeStyle;rounded=0;orthogonalLoop=1;jettySize=auto;html=1;exitX=0.5;exitY=1;exitDx=0;exitDy=0;entryX=1;entryY=0.5;entryDx=0;entryDy=0;" edge="1" parent="1" source="OZxsAudcZLBtBJnWpDgQ-10" target="OZxsAudcZLBtBJnWpDgQ-11">
          <mxGeometry relative="1" as="geometry" />
        </mxCell>
        <mxCell id="OZxsAudcZLBtBJnWpDgQ-10" value="House_animals" style="rounded=1;whiteSpace=wrap;html=1;" vertex="1" parent="1">
          <mxGeometry x="570" y="170" width="120" height="60" as="geometry" />
        </mxCell>
        <mxCell id="OZxsAudcZLBtBJnWpDgQ-11" value="Animals" style="rounded=1;whiteSpace=wrap;html=1;" vertex="1" parent="1">
          <mxGeometry x="354" y="320" width="120" height="60" as="geometry" />
        </mxCell>
        <mxCell id="OZxsAudcZLBtBJnWpDgQ-15" style="edgeStyle=orthogonalEdgeStyle;rounded=0;orthogonalLoop=1;jettySize=auto;html=1;entryX=1;entryY=0.5;entryDx=0;entryDy=0;" edge="1" parent="1">
          <mxGeometry relative="1" as="geometry">
            <mxPoint x="770" y="100" as="sourcePoint" />
            <mxPoint x="690" y="200" as="targetPoint" />
            <Array as="points">
              <mxPoint x="770" y="200" />
            </Array>
          </mxGeometry>
        </mxCell>
        <mxCell id="OZxsAudcZLBtBJnWpDgQ-16" style="edgeStyle=orthogonalEdgeStyle;rounded=0;orthogonalLoop=1;jettySize=auto;html=1;entryX=0;entryY=0.5;entryDx=0;entryDy=0;" edge="1" parent="1">
          <mxGeometry relative="1" as="geometry">
            <mxPoint x="570" y="200" as="targetPoint" />
            <mxPoint x="490" y="100" as="sourcePoint" />
            <Array as="points">
              <mxPoint x="490" y="200" />
            </Array>
          </mxGeometry>
        </mxCell>
      </root>
    </mxGraphModel>
  </diagram>
</mxfile>
